<?xml version="1.0" standalone="no"?>
<!DOCTYPE svg PUBLIC "-//W3C//DTD SVG 20010904//EN"
 "http://www.w3.org/TR/2001/REC-SVG-20010904/DTD/svg10.dtd">
<svg version="1.0" xmlns="http://www.w3.org/2000/svg"
 width="1460.000000pt" height="1460.000000pt" viewBox="0 0 1460.000000 1460.000000"
 preserveAspectRatio="xMidYMid meet">
<metadata>
Created by potrace 1.11, written by Peter Selinger 2001-2013
</metadata>
<g transform="translate(0.000000,1460.000000) scale(0.100000,-0.100000)"
fill="#000000" stroke="none">
<path d="M3477 10264 c-1 -1 -60 -5 -132 -9 -71 -4 -155 -8 -185 -10 -30 -2
-111 -6 -180 -9 -69 -4 -154 -8 -190 -11 -59 -4 -130 -8 -370 -20 -215 -11
-360 -20 -480 -30 -36 -3 -90 -7 -122 -9 -31 -2 -60 -6 -65 -8 -4 -2 -26 -6
-48 -7 -22 -2 -48 -10 -59 -19 -18 -17 -47 -67 -45 -77 5 -27 -16 -86 -36 -99
-26 -17 -109 -39 -195 -51 -156 -21 -336 -32 -547 -34 l-123 -1 5 -522 c5
-501 14 -1178 17 -1264 1 -22 -1 -45 -5 -51 -4 -5 -4 -13 0 -17 4 -3 7 -52 8
-109 2 -56 3 -105 4 -108 0 -3 13 -6 29 -6 24 0 240 -8 522 -18 58 -2 148 -4
201 -5 53 -1 101 -5 106 -9 13 -8 23 -60 12 -67 -5 -2 -4 -16 1 -29 6 -15 6
-27 0 -30 -5 -3 -6 -15 -1 -28 5 -12 5 -31 1 -42 -4 -11 -4 -32 1 -47 4 -16 5
-28 1 -28 -8 0 -7 -134 1 -148 4 -5 4 -12 0 -15 -3 -4 -7 -30 -9 -59 -5 -87
-15 -139 -37 -198 -12 -30 -21 -57 -22 -60 0 -3 -20 -33 -43 -68 -49 -72 -113
-142 -302 -333 -222 -224 -304 -325 -417 -514 -38 -65 -84 -165 -75 -165 4 0
2 -4 -4 -8 -6 -4 -19 -34 -29 -67 -36 -126 -40 -155 -40 -295 1 -107 5 -137
27 -205 14 -44 33 -93 42 -110 9 -16 16 -36 16 -42 0 -7 5 -13 10 -13 6 0 10
-5 10 -11 0 -29 99 -150 234 -284 166 -165 219 -200 352 -231 93 -22 94 -22
166 -29 35 -4 77 -9 93 -11 165 -18 381 -28 895 -42 394 -10 9617 -9 10070 1
530 12 710 19 785 34 17 3 39 6 50 7 50 5 96 22 180 65 49 25 92 48 95 51 3 3
21 17 40 30 51 35 86 66 175 155 102 103 124 130 179 218 144 231 167 431 84
712 -19 64 -113 273 -128 285 -3 3 -23 32 -43 65 -21 33 -51 75 -67 94 -17 18
-30 37 -30 41 0 8 -220 233 -265 270 -166 139 -357 264 -535 351 -47 23 -88
47 -92 53 -4 6 -8 8 -8 4 0 -4 -33 7 -72 23 -58 24 -155 57 -188 64 -7 2 -87
15 -125 21 -108 18 -260 27 -630 39 -449 14 -445 14 -468 38 -12 12 -34 38
-47 57 -14 19 -32 42 -40 50 -8 9 -28 33 -45 54 -16 21 -37 46 -45 56 -36 44
-47 58 -80 100 -19 25 -40 49 -46 55 -6 5 -40 46 -75 90 -35 44 -68 85 -74 91
-5 6 -30 34 -53 63 l-44 51 -289 0 -289 0 0 -350 0 -350 -1195 0 -1194 0 -11
43 c-25 97 -44 141 -75 172 -81 84 -276 134 -530 137 -73 0 -350 -17 -350 -22
0 -1 -9 -3 -20 -5 -68 -13 -143 -69 -175 -131 -8 -16 -18 -31 -21 -34 -3 -3
-23 -40 -45 -83 l-39 -79 -1120 5 c-1026 4 -1235 8 -1350 22 -22 3 -62 7 -90
11 -180 21 -281 73 -334 174 -17 32 -44 110 -46 135 -1 6 -4 26 -8 45 -9 48
-21 227 -32 505 -8 199 -15 835 -15 1512 l0 693 -111 -3 c-61 -1 -111 -3 -112
-3z"/>
<path d="M3911 10016 c-7 -9 -11 -312 -10 -947 0 -514 0 -943 -1 -954 -1 -11
-1 -26 -1 -32 1 -7 1 -21 1 -30 0 -10 0 -31 1 -48 0 -16 0 -37 0 -45 -1 -8 -1
-44 0 -80 0 -36 0 -72 -1 -80 -1 -52 2 -125 6 -131 2 -4 0 -10 -5 -14 -6 -3
-8 -12 -4 -20 4 -12 35 -15 179 -15 l174 0 0 1199 0 1199 -77 4 c-43 2 -105 1
-138 -2 -33 -3 -72 -2 -87 2 -17 4 -31 2 -37 -6z"/>
</g>
</svg>
